<?xml version="1.0" encoding="UTF-8"?>
<svg id="Layer_2" xmlns="http://www.w3.org/2000/svg" version="1.1" viewBox="0 0 72.3 96.8">
  <!-- Generator: Adobe Illustrator 29.8.1, SVG Export Plug-In . SVG Version: 2.1.1 Build 2)  -->
  <defs>
    <style>
      .st0 {
        fill: #0084d1;
      }
    </style>
  </defs>
  <g id="Layer_1-2">
    <path class="st0" d="M72.1,70.4c-.7-6.5-3.5-11.9-8.5-16-.8-.7-2.1-1.6-3.8-2.7l-12,14.8c2,.2,3.4.6,4.4,1.4,1.4,1.1,2.2,2.6,2.3,4.3.2,1.8-.4,3.4-1.5,4.8s-2.6,2.2-4.5,2.4c-1.8.2-3.5-.3-4.9-1.5-3.4-2.8-3.2-6.5.7-11.3l23.8-29.4h0s0,0,0,0c6.5-8,5.4-19.9-2.6-26.4l-8.4-6.8c-8-6.5-19.9-5-26.4,3,0,0,0,0,0,0h0L6.5,36.9C2.1,42.4,0,48,0,53.8s.9,6.6,2.5,9.8c1.6,3.2,3.7,5.9,6.4,8.1,4.7,3.8,9.9,5.7,15.6,5.7.4,1.9,1,3.8,2,5.6,1.6,3.2,3.7,5.9,6.4,8.1,5.3,4.3,11.3,6.2,17.8,5.5s12-3.6,16.2-8.8c4.2-5.1,5.9-10.9,5.2-17.5h0ZM24.6,60.1c-1.8.2-3.5-.3-4.9-1.5-3.4-2.8-3.2-6.5.7-11.3l23.7-29.3h0c1.2-1.4,3.3-1.6,4.8-.5l5.1,4.1c1.5,1.2,1.7,3.4.5,4.9l-10.6,13c-1.2-1.6-2.6-3.2-4.3-4.5-.8-.7-2.1-1.6-3.8-2.7l-12,14.8c2,.2,3.4.6,4.4,1.4,1.4,1.1,2.2,2.6,2.3,4.3s-.4,3.4-1.5,4.8c-1.1,1.4-2.6,2.2-4.4,2.4h0Z"/>
  </g>
</svg>