<?xml version="1.0" encoding="UTF-8"?>
<svg id="Layer_2" data-name="Layer 2" xmlns="http://www.w3.org/2000/svg" viewBox="0 0 72.31 96.81">
  <defs>
    <style>
      .cls-1 {
        fill: #010101;
      }
    </style>
  </defs>
  <g id="Layer_1-2" data-name="Layer 1">
    <path class="cls-1" d="M72.12,70.4c-.66-6.55-3.51-11.87-8.55-15.96-.81-.66-2.07-1.56-3.76-2.69l-11.97,14.78c1.97.16,3.44.64,4.42,1.44,1.39,1.12,2.16,2.57,2.31,4.34.15,1.77-.36,3.38-1.54,4.84-1.14,1.41-2.63,2.2-4.45,2.37-1.82.17-3.46-.34-4.92-1.52-3.42-2.77-3.2-6.54.65-11.29l23.78-29.44h0c.09-.1-.09.11,0,0,6.47-7.99,5.4-19.94-2.59-26.41l-8.38-6.79c-7.99-6.48-19.88-5.03-26.36,2.96-.09.11.08-.11,0,0h0L6.54,36.94C2.1,42.41-.08,48.03,0,53.8c.04,3.32.86,6.6,2.46,9.83,1.6,3.24,3.73,5.94,6.41,8.11,4.71,3.82,9.91,5.7,15.58,5.65.4,1.89,1.04,3.78,1.96,5.64,1.6,3.24,3.74,5.94,6.42,8.11,5.33,4.32,11.28,6.17,17.84,5.54,6.56-.62,11.97-3.55,16.21-8.79,4.15-5.12,5.89-10.95,5.24-17.5ZM24.62,60.11c-1.82.17-3.46-.34-4.92-1.52-3.42-2.77-3.2-6.53.66-11.29l23.72-29.32h0c1.21-1.43,3.32-1.65,4.78-.47l5.12,4.14c1.48,1.2,1.71,3.37.51,4.85l-10.57,13.05c-1.2-1.64-2.61-3.15-4.29-4.52-.81-.66-2.07-1.56-3.76-2.69l-11.97,14.78c1.96.16,3.44.64,4.42,1.44,1.39,1.12,2.16,2.57,2.31,4.34.15,1.77-.36,3.38-1.54,4.84-1.14,1.41-2.63,2.2-4.44,2.37Z"/>
  </g>
</svg>