<?xml version="1.0" encoding="UTF-8"?>
<svg id="Layer_1" xmlns="http://www.w3.org/2000/svg" version="1.1" viewBox="0 0 256.6 256.6">
  <!-- Generator: Adobe Illustrator 29.8.1, SVG Export Plug-In . SVG Version: 2.1.1 Build 2)  -->
  <defs>
    <style>
      .st0 {
        fill-rule: evenodd;
      }

      .st0, .st1 {
        fill: #020504;
      }

      .st2 {
        fill: #fd0;
      }
    </style>
  </defs>
  <g>
    <path class="st1" d="M531.9,130.9v56.8h23.2v-53.3c0-23.7,32.3-23.7,32.3-23.7v-23.1s-9,.4-16.1,2c-20.2,4.5-39.4,14.5-39.4,41.3h0Z"/>
    <path class="st1" d="M356.7,86.3c9.1,0,20.4,5.1,26.5,14.1,6.4-8.2,16.9-13.8,29.8-13.9,16.5-.2,36.8,10.1,36.8,40.8v60.2h-23.2v-60.2c0-10.3-7.4-17.6-18.5-17.6s-18.5,7.3-18.5,17.6v60.2h-23.2v-60.2c0-10.3-7.4-17.6-18.5-17.6s-18.7,7.3-18.7,17.6v60.2h-24.4v-98.2h24.4v9.8c6.6-8,16.2-12.9,27.5-12.9h-.1q0,0,0,0Z"/>
    <path class="st1" d="M503.3,90.6v96.9h-23.6v-96.9h23.6,0Z"/>
    <path class="st1" d="M491.4,75.2c7.3,0,13.2-5.9,13.2-13.1s-5.9-13.1-13.2-13.1-13.2,5.9-13.2,13.1,5.9,13.1,13.2,13.1Z"/>
    <path class="st1" d="M650.5,86.1c-28.6,0-51.8,23.1-51.8,51.6s23.2,51.6,51.8,51.6,51.8-23.1,51.8-51.6-23.2-51.6-51.8-51.6ZM650.5,166.1c-16.2,0-29.3-13.1-29.3-29.2s13.1-29.2,29.3-29.2,29.3,13.1,29.3,29.2-13.1,29.2-29.3,29.2Z"/>
  </g>
  <g>
    <path class="st2" d="M0,64.1C0,28.8,28.7,0,64.1,0h128.3c35.4,0,64.1,28.7,64.1,64.1v128.3c0,35.4-28.7,64.1-64.1,64.1H64.1c-35.4,0-64.1-28.7-64.1-64.1V64.1Z"/>
    <path class="st0" d="M170.6,49h-23.3l19.4,34.1-42.7-34.1h-23.3l21.3,41.7-44.6-41.7h-23.3l23.3,53.1-23.3,106.1h23.3l44.6-113.7-21.3,113.7h23.3l42.7-121.3-19.4,121.3h23.3l42.7-132.6-42.7-26.5h0s0,0,0,0Z"/>
  </g>
</svg>